<svg host="65bd71144e" xmlns="http://www.w3.org/2000/svg" style="background: transparent; background-color: transparent;" xmlns:xlink="http://www.w3.org/1999/xlink" version="1.1" width="582px" height="642px" viewBox="-0.5 -0.5 582 642" content="&lt;mxfile&gt;&lt;diagram id=&quot;nsBtUmLpRge6HQRNi2g4&quot; name=&quot;Page-1&quot;&gt;7Vtbc6s2EP41mbQPyQAG7DweO5c+NJ3M+ExP+yjDBnQMEiPk2M6v7wqEDYjEdurYdeOZXNCHWOTdbz9dfdEbpYsHQbL4kYeQXDhWuLjo3V44jj/w8K8CliVw4/glEAkalpC9Bsb0FTRoaXRGQ8hLTEOS80TSLG88HXDGIJANjAjB581qzzxpvjUjETSsK2AckASMaj9oKOMSHXi12r8BjeLqzbal76SkqqyBPCYhn9eg3t1FbyQ4l+VVuhhBonxX+aV87v6Nu6uGCWBymwfc8oEXksz0Z3uAV5ICS+jPKeAdBnICMYAIQeS6zXJZOSKf0zQhDEvDWKYJgjZeBjFNwt/Jks9UG3JJgmlVGgrIMZxPVQPtFvRIFEcsZY8L+sqZJIkG0I6QmgtOs8ZYvUJXm8dUwjgjgao3R/qpBvEkIVlOJ0W7S2OCT2HEEy4QCeGZzBLVPNN/2qUvICQsapD25wPwFKRYYhV919WhXVac1eX5mineQGNxjSVuBRLNzmhleh1AvNAx7I6nZ8TzlkiSCR7OApkShswUW0bxHX9rJ/4bt7q7utXpcKPf4Ubb2YMbb0w3UmCIzHIISK4Sg6pigeFneKY/meHWjFMmi0Z4Q/yxrlV0Rlbx62GFUQF2YX0TtFWpstAEu7C+12XS7nh3G3M6wE6THe+2Wo3EH+RETDLlkXQRqc7gepKl7FqSfPpGsgpU7LH2ouAzFkKorJREtK2W1Cg+UgZCl2GRERa+yU/12kcipkV9MkG6EtU9DHNsAmURgt5OLPZ2ZbHfFIeeSeqVXtRJ7e+B0yslW5N6CJyjsBedc6o7aQlRk+lnVp9ZvYHVPet4tPYNVn8HkiIyBuzvJIXpafd31TDioP1fNdCuefVPrkYOFo670aEWjtmAiCBWQkHlWSS+nkj4uxLado4nErZj8LmalKZkWvR3v1AWJNfFwE6CYFCQ/IXC/Nczu8/s3izX7hHZbc7in2aThAZQSLYe2Z1JfCbxpqWLI0p035xyoxF03iLD9v8vxnArjTjMGK5rvocj4rma8ylckGKmd9aFr6YL/V15bA+OpwsDUxeIJFf4FmCEnPhiZuVP/6DC0OsQBmMh6CwLX00WBruyuHfE1cye2bsZnIUwgsr5kEz4/G4NDJ/R2VoQcHbYiAOw8JvaJcTiJOHB9HtMWQnf02StKDuqQ85nItAt0/sLKEoRVKmtnaIa/a7z696tPCkgIZK+NLcnu9yrzT2pbF4H8sofNAJp9/2mibLt+qn6dmLL0I3zvp3yAxt2imCvPuJ28Tdn9CcU/yrYDQLYRyRAvzVSbafo1gTYYGePBDB7sVMigN1BAOeIBLB7rci5H2TAJjt7ZIC52X1KDHBMBjjHlIB26vY/SIC2lLTt7JEA5t7PCRHgmMHue80gGfOKbYPttnf+bj4v2uYK0QlFu5p0NQTfPR4Deq0pvfdRvffcDYb2x4DBf3XMj4EXy78QKuaLuvz3RTlNKwq3i0ZpWS89gaDohWIaZ6341CLF1nJiEuwgfHJbsr8Shp0Vpd1/tKXpDT5h9MiyVk0vWLzdYN9rSqDVOCmJF6XFj5K1SoMGWf2CLoqGeB2p6z8ozOblrDunwGZpqvZsfC0s9/WqFRzSlzZUr4ZtRHuXoSDP8nKDKYQb1lrJVF9Aqw6qKoaGJI+hWpggCY0wVW4DYAWHh2oBgQYk+aZvpDQMi/RrL56UR3Gd8r8yW6VFcVC4WB1hXAZxVfjEQ5uO16ZvWaxnSuehzT0sZbhdsnYIprxyFhY7hGey7EQW1z0iWTqOptZO+OpDDZezLOApZdHlaYfJiElH5LbO6Sv7gHHyTPkvEhhWGfyFI9NOoMNGpmtfNBI0U3mDKQMhqmt4TpxaeDq2pz4vPM474YkgCemXFjUjdT4xNlhcfxOpHAKvv87Vu/sH&lt;/diagram&gt;&lt;/mxfile&gt;">
    <defs/>
    <g>
        <g>
            <path d="M 20 160 L 0 160 L 0 640 L 20 640" fill="#ffffff" stroke="#000000" stroke-miterlimit="10" pointer-events="all" style="fill: light-dark(#ffffff, var(--ge-dark-color, #121212)); stroke: light-dark(rgb(0, 0, 0), rgb(255, 255, 255));"/>
            <path d="M 20 160 L 580 160 L 580 640 L 20 640" fill="none" stroke="#000000" stroke-miterlimit="10" pointer-events="none" style="stroke: light-dark(rgb(0, 0, 0), rgb(255, 255, 255));"/>
            <path d="M 20 160 L 20 640" fill="none" stroke="#000000" stroke-miterlimit="10" pointer-events="none" style="stroke: light-dark(rgb(0, 0, 0), rgb(255, 255, 255));"/>
        </g>
        <g>
            <g transform="translate(-0.5 -0.5)rotate(-90 10 400)">
                <switch>
                    <foreignObject style="overflow: visible; text-align: left;" pointer-events="none" width="100%" height="100%" requiredFeatures="http://www.w3.org/TR/SVG11/feature#Extensibility">
                        <div xmlns="http://www.w3.org/1999/xhtml" style="display: flex; align-items: unsafe center; justify-content: unsafe center; width: 478px; height: 1px; padding-top: 400px; margin-left: -229px;">
                            <div style="box-sizing: border-box; font-size: 0; text-align: center; color: #000000; ">
                                <div style="display: inline-block; font-size: 12px; font-family: &quot;Helvetica&quot;; color: light-dark(#000000, #ffffff); line-height: 1.2; pointer-events: all; font-weight: bold; white-space: normal; word-wrap: normal; ">
                                    Gezamenlijke netbeheerders
                                </div>
                            </div>
                        </div>
                    </foreignObject>
                    <text x="10" y="404" fill="light-dark(#000000, #ffffff)" font-family="&quot;Helvetica&quot;" font-size="12px" text-anchor="middle" font-weight="bold">
                        Gezamenlijke netbeheerders
                    </text>
                </switch>
            </g>
        </g>
        <g>
            <path d="M 40 160 L 20 160 L 20 280 L 40 280" fill="#ffffff" stroke="#000000" stroke-miterlimit="10" pointer-events="all" style="fill: light-dark(#ffffff, var(--ge-dark-color, #121212)); stroke: light-dark(rgb(0, 0, 0), rgb(255, 255, 255));"/>
            <path d="M 40 160 L 580 160 L 580 280 L 40 280" fill="none" stroke="#000000" stroke-miterlimit="10" pointer-events="none" style="stroke: light-dark(rgb(0, 0, 0), rgb(255, 255, 255));"/>
            <path d="M 40 160 L 40 280" fill="none" stroke="#000000" stroke-miterlimit="10" pointer-events="none" style="stroke: light-dark(rgb(0, 0, 0), rgb(255, 255, 255));"/>
        </g>
        <g>
            <g transform="translate(-0.5 -0.5)rotate(-90 30 220)">
                <switch>
                    <foreignObject style="overflow: visible; text-align: left;" pointer-events="none" width="100%" height="100%" requiredFeatures="http://www.w3.org/TR/SVG11/feature#Extensibility">
                        <div xmlns="http://www.w3.org/1999/xhtml" style="display: flex; align-items: unsafe center; justify-content: unsafe center; width: 1px; height: 1px; padding-top: 220px; margin-left: 30px;">
                            <div style="box-sizing: border-box; font-size: 0; text-align: center; color: #000000; ">
                                <div style="display: inline-block; font-size: 12px; font-family: &quot;Helvetica&quot;; color: light-dark(#000000, #ffffff); line-height: 1.2; pointer-events: all; font-weight: bold; white-space: nowrap; ">
                                    Dataproductmanager
                                </div>
                            </div>
                        </div>
                    </foreignObject>
                    <text x="30" y="224" fill="light-dark(#000000, #ffffff)" font-family="&quot;Helvetica&quot;" font-size="12px" text-anchor="middle" font-weight="bold">
                        Dataproductmanager
                    </text>
                </switch>
            </g>
        </g>
        <g>
            <path d="M 80 200 C 80 194.48 84.48 190 90 190 L 170 190 C 175.52 190 180 194.48 180 200 L 180 240 C 180 245.52 175.52 250 170 250 L 90 250 C 84.48 250 80 245.52 80 240 L 80 200 Z" fill="#ffffff" stroke="none" pointer-events="all" style="fill: light-dark(#ffffff, var(--ge-dark-color, #121212));"/>
            <path d="M 82 201 L 82 239 C 82 243.97 86.03 248 91 248 L 169 248 C 173.97 248 178 243.97 178 239 L 178 201 C 178 196.03 173.97 192 169 192 L 91 192 C 86.03 192 82 196.03 82 201" fill="transparent" stroke="none" pointer-events="all" style="fill: transparent;"/>
            <path d="M 80 200 C 80 194.48 84.48 190 90 190 L 170 190 C 175.52 190 180 194.48 180 200 L 180 240 C 180 245.52 175.52 250 170 250 L 90 250 C 84.48 250 80 245.52 80 240 L 80 200 Z" fill="none" stroke="#000000" stroke-miterlimit="10" pointer-events="all" style="stroke: light-dark(rgb(0, 0, 0), rgb(255, 255, 255));"/>
        </g>
        <g>
            <g transform="translate(-0.5 -0.5)">
                <switch>
                    <foreignObject style="overflow: visible; text-align: left;" pointer-events="none" width="100%" height="100%" requiredFeatures="http://www.w3.org/TR/SVG11/feature#Extensibility">
                        <div xmlns="http://www.w3.org/1999/xhtml" style="display: flex; align-items: unsafe center; justify-content: unsafe center; width: 92px; height: 1px; padding-top: 220px; margin-left: 84px;">
                            <div style="box-sizing: border-box; font-size: 0; text-align: center; color: #000000; ">
                                <div style="display: inline-block; font-size: 12px; font-family: &quot;Helvetica&quot;; color: light-dark(#000000, #ffffff); line-height: 1.2; pointer-events: all; white-space: normal; word-wrap: normal; ">
                                    Dien usecase in en verfijn
                                </div>
                            </div>
                        </div>
                    </foreignObject>
                    <text x="130" y="224" fill="light-dark(#000000, #ffffff)" font-family="&quot;Helvetica&quot;" font-size="12px" text-anchor="middle">
                        Dien usecase in...
                    </text>
                </switch>
            </g>
        </g>
        <g>
            <path d="M 320 200 C 320 194.48 324.48 190 330 190 L 410 190 C 415.52 190 420 194.48 420 200 L 420 240 C 420 245.52 415.52 250 410 250 L 330 250 C 324.48 250 320 245.52 320 240 L 320 200 Z" fill="#ffffff" stroke="none" pointer-events="all" style="fill: light-dark(#ffffff, var(--ge-dark-color, #121212));"/>
            <path d="M 322 201 L 322 239 C 322 243.97 326.03 248 331 248 L 409 248 C 413.97 248 418 243.97 418 239 L 418 201 C 418 196.03 413.97 192 409 192 L 331 192 C 326.03 192 322 196.03 322 201" fill="transparent" stroke="none" pointer-events="all" style="fill: transparent;"/>
            <path d="M 320 200 C 320 194.48 324.48 190 330 190 L 410 190 C 415.52 190 420 194.48 420 200 L 420 240 C 420 245.52 415.52 250 410 250 L 330 250 C 324.48 250 320 245.52 320 240 L 320 200 Z" fill="none" stroke="#000000" stroke-miterlimit="10" pointer-events="all" style="stroke: light-dark(rgb(0, 0, 0), rgb(255, 255, 255));"/>
        </g>
        <g>
            <g transform="translate(-0.5 -0.5)">
                <switch>
                    <foreignObject style="overflow: visible; text-align: left;" pointer-events="none" width="100%" height="100%" requiredFeatures="http://www.w3.org/TR/SVG11/feature#Extensibility">
                        <div xmlns="http://www.w3.org/1999/xhtml" style="display: flex; align-items: unsafe center; justify-content: unsafe center; width: 92px; height: 1px; padding-top: 220px; margin-left: 324px;">
                            <div style="box-sizing: border-box; font-size: 0; text-align: center; color: #000000; ">
                                <div style="display: inline-block; font-size: 12px; font-family: &quot;Helvetica&quot;; color: light-dark(#000000, #ffffff); line-height: 1.2; pointer-events: all; white-space: normal; word-wrap: normal; ">
                                    Beoordeel model tegen usecase
                                </div>
                            </div>
                        </div>
                    </foreignObject>
                    <text x="370" y="224" fill="light-dark(#000000, #ffffff)" font-family="&quot;Helvetica&quot;" font-size="12px" text-anchor="middle">
                        Beoordeel model...
                    </text>
                </switch>
            </g>
        </g>
        <g>
            <path d="M 40 280 L 20 280 L 20 400 L 40 400" fill="#ffffff" stroke="#000000" stroke-miterlimit="10" pointer-events="all" style="fill: light-dark(#ffffff, var(--ge-dark-color, #121212)); stroke: light-dark(rgb(0, 0, 0), rgb(255, 255, 255));"/>
            <path d="M 40 280 L 580 280 L 580 400 L 40 400" fill="none" stroke="#000000" stroke-miterlimit="10" pointer-events="none" style="stroke: light-dark(rgb(0, 0, 0), rgb(255, 255, 255));"/>
            <path d="M 40 280 L 40 400" fill="none" stroke="#000000" stroke-miterlimit="10" pointer-events="none" style="stroke: light-dark(rgb(0, 0, 0), rgb(255, 255, 255));"/>
        </g>
        <g>
            <g transform="translate(-0.5 -0.5)rotate(-90 30 340)">
                <switch>
                    <foreignObject style="overflow: visible; text-align: left;" pointer-events="none" width="100%" height="100%" requiredFeatures="http://www.w3.org/TR/SVG11/feature#Extensibility">
                        <div xmlns="http://www.w3.org/1999/xhtml" style="display: flex; align-items: unsafe center; justify-content: unsafe center; width: 1px; height: 1px; padding-top: 340px; margin-left: 30px;">
                            <div style="box-sizing: border-box; font-size: 0; text-align: center; color: #000000; ">
                                <div style="display: inline-block; font-size: 12px; font-family: &quot;Helvetica&quot;; color: light-dark(#000000, #ffffff); line-height: 1.2; pointer-events: all; font-weight: bold; white-space: nowrap; ">
                                    Team Semantiek
                                </div>
                            </div>
                        </div>
                    </foreignObject>
                    <text x="30" y="344" fill="light-dark(#000000, #ffffff)" font-family="&quot;Helvetica&quot;" font-size="12px" text-anchor="middle" font-weight="bold">
                        Team Semantiek
                    </text>
                </switch>
            </g>
        </g>
        <g>
            <path d="M 140 320 C 140 314.48 144.48 310 150 310 L 230 310 C 235.52 310 240 314.48 240 320 L 240 360 C 240 365.52 235.52 370 230 370 L 150 370 C 144.48 370 140 365.52 140 360 L 140 320 Z" fill="#ffffff" stroke="none" pointer-events="all" style="fill: light-dark(#ffffff, var(--ge-dark-color, #121212));"/>
            <path d="M 142 321 L 142 359 C 142 363.97 146.03 368 151 368 L 229 368 C 233.97 368 238 363.97 238 359 L 238 321 C 238 316.03 233.97 312 229 312 L 151 312 C 146.03 312 142 316.03 142 321" fill="transparent" stroke="none" pointer-events="all" style="fill: transparent;"/>
            <path d="M 140 320 C 140 314.48 144.48 310 150 310 L 230 310 C 235.52 310 240 314.48 240 320 L 240 360 C 240 365.52 235.52 370 230 370 L 150 370 C 144.48 370 140 365.52 140 360 L 140 320 Z" fill="none" stroke="#000000" stroke-miterlimit="10" pointer-events="all" style="stroke: light-dark(rgb(0, 0, 0), rgb(255, 255, 255));"/>
        </g>
        <g>
            <g transform="translate(-0.5 -0.5)">
                <switch>
                    <foreignObject style="overflow: visible; text-align: left;" pointer-events="none" width="100%" height="100%" requiredFeatures="http://www.w3.org/TR/SVG11/feature#Extensibility">
                        <div xmlns="http://www.w3.org/1999/xhtml" style="display: flex; align-items: unsafe center; justify-content: unsafe center; width: 92px; height: 1px; padding-top: 340px; margin-left: 144px;">
                            <div style="box-sizing: border-box; font-size: 0; text-align: center; color: #000000; ">
                                <div style="display: inline-block; font-size: 12px; font-family: &quot;Helvetica&quot;; color: light-dark(#000000, #ffffff); line-height: 1.2; pointer-events: all; white-space: normal; word-wrap: normal; ">
                                    Voer desk research uit
                                </div>
                            </div>
                        </div>
                    </foreignObject>
                    <text x="190" y="344" fill="light-dark(#000000, #ffffff)" font-family="&quot;Helvetica&quot;" font-size="12px" text-anchor="middle">
                        Voer desk resea...
                    </text>
                </switch>
            </g>
        </g>
        <g>
            <path d="M 260 320 C 260 314.48 264.48 310 270 310 L 350 310 C 355.52 310 360 314.48 360 320 L 360 360 C 360 365.52 355.52 370 350 370 L 270 370 C 264.48 370 260 365.52 260 360 L 260 320 Z" fill="#ffffff" stroke="none" pointer-events="all" style="fill: light-dark(#ffffff, var(--ge-dark-color, #121212));"/>
            <path d="M 262 321 L 262 359 C 262 363.97 266.03 368 271 368 L 349 368 C 353.97 368 358 363.97 358 359 L 358 321 C 358 316.03 353.97 312 349 312 L 271 312 C 266.03 312 262 316.03 262 321" fill="transparent" stroke="none" pointer-events="all" style="fill: transparent;"/>
            <path d="M 260 320 C 260 314.48 264.48 310 270 310 L 350 310 C 355.52 310 360 314.48 360 320 L 360 360 C 360 365.52 355.52 370 350 370 L 270 370 C 264.48 370 260 365.52 260 360 L 260 320 Z" fill="none" stroke="#000000" stroke-miterlimit="10" pointer-events="all" style="stroke: light-dark(rgb(0, 0, 0), rgb(255, 255, 255));"/>
        </g>
        <g>
            <g transform="translate(-0.5 -0.5)">
                <switch>
                    <foreignObject style="overflow: visible; text-align: left;" pointer-events="none" width="100%" height="100%" requiredFeatures="http://www.w3.org/TR/SVG11/feature#Extensibility">
                        <div xmlns="http://www.w3.org/1999/xhtml" style="display: flex; align-items: unsafe center; justify-content: unsafe center; width: 92px; height: 1px; padding-top: 340px; margin-left: 264px;">
                            <div style="box-sizing: border-box; font-size: 0; text-align: center; color: #000000; ">
                                <div style="display: inline-block; font-size: 12px; font-family: &quot;Helvetica&quot;; color: light-dark(#000000, #ffffff); line-height: 1.2; pointer-events: all; white-space: normal; word-wrap: normal; ">
                                    Model maken (incl. interne review)
                                </div>
                            </div>
                        </div>
                    </foreignObject>
                    <text x="310" y="344" fill="light-dark(#000000, #ffffff)" font-family="&quot;Helvetica&quot;" font-size="12px" text-anchor="middle">
                        Model maken (in...
                    </text>
                </switch>
            </g>
        </g>
        <g>
            <path d="M 440 320 C 440 314.48 444.48 310 450 310 L 530 310 C 535.52 310 540 314.48 540 320 L 540 360 C 540 365.52 535.52 370 530 370 L 450 370 C 444.48 370 440 365.52 440 360 L 440 320 Z" fill="#ffffff" stroke="none" pointer-events="all" style="fill: light-dark(#ffffff, var(--ge-dark-color, #121212));"/>
            <path d="M 442 321 L 442 359 C 442 363.97 446.03 368 451 368 L 529 368 C 533.97 368 538 363.97 538 359 L 538 321 C 538 316.03 533.97 312 529 312 L 451 312 C 446.03 312 442 316.03 442 321" fill="transparent" stroke="none" pointer-events="all" style="fill: transparent;"/>
            <path d="M 440 320 C 440 314.48 444.48 310 450 310 L 530 310 C 535.52 310 540 314.48 540 320 L 540 360 C 540 365.52 535.52 370 530 370 L 450 370 C 444.48 370 440 365.52 440 360 L 440 320 Z" fill="none" stroke="#000000" stroke-miterlimit="10" pointer-events="all" style="stroke: light-dark(rgb(0, 0, 0), rgb(255, 255, 255));"/>
        </g>
        <g>
            <g transform="translate(-0.5 -0.5)">
                <switch>
                    <foreignObject style="overflow: visible; text-align: left;" pointer-events="none" width="100%" height="100%" requiredFeatures="http://www.w3.org/TR/SVG11/feature#Extensibility">
                        <div xmlns="http://www.w3.org/1999/xhtml" style="display: flex; align-items: unsafe center; justify-content: unsafe center; width: 92px; height: 1px; padding-top: 340px; margin-left: 444px;">
                            <div style="box-sizing: border-box; font-size: 0; text-align: center; color: #000000; ">
                                <div style="display: inline-block; font-size: 12px; font-family: &quot;Helvetica&quot;; color: light-dark(#000000, #ffffff); line-height: 1.2; pointer-events: all; white-space: normal; word-wrap: normal; ">
                                    Publiceer model
                                </div>
                            </div>
                        </div>
                    </foreignObject>
                    <text x="490" y="344" fill="light-dark(#000000, #ffffff)" font-family="&quot;Helvetica&quot;" font-size="12px" text-anchor="middle">
                        Publiceer model
                    </text>
                </switch>
            </g>
        </g>
        <g>
            <path d="M 40 400 L 20 400 L 20 520 L 40 520" fill="#ffffff" stroke="#000000" stroke-miterlimit="10" pointer-events="all" style="fill: light-dark(#ffffff, var(--ge-dark-color, #121212)); stroke: light-dark(rgb(0, 0, 0), rgb(255, 255, 255));"/>
            <path d="M 40 400 L 580 400 L 580 520 L 40 520" fill="none" stroke="#000000" stroke-miterlimit="10" pointer-events="none" style="stroke: light-dark(rgb(0, 0, 0), rgb(255, 255, 255));"/>
            <path d="M 40 400 L 40 520" fill="none" stroke="#000000" stroke-miterlimit="10" pointer-events="none" style="stroke: light-dark(rgb(0, 0, 0), rgb(255, 255, 255));"/>
        </g>
        <g>
            <g transform="translate(-0.5 -0.5)rotate(-90 30 460)">
                <switch>
                    <foreignObject style="overflow: visible; text-align: left;" pointer-events="none" width="100%" height="100%" requiredFeatures="http://www.w3.org/TR/SVG11/feature#Extensibility">
                        <div xmlns="http://www.w3.org/1999/xhtml" style="display: flex; align-items: unsafe center; justify-content: unsafe center; width: 1px; height: 1px; padding-top: 460px; margin-left: 30px;">
                            <div style="box-sizing: border-box; font-size: 0; text-align: center; color: #000000; ">
                                <div style="display: inline-block; font-size: 12px; font-family: &quot;Helvetica&quot;; color: light-dark(#000000, #ffffff); line-height: 1.2; pointer-events: all; font-weight: bold; white-space: nowrap; ">
                                    Domeinexpert
                                </div>
                            </div>
                        </div>
                    </foreignObject>
                    <text x="30" y="464" fill="light-dark(#000000, #ffffff)" font-family="&quot;Helvetica&quot;" font-size="12px" text-anchor="middle" font-weight="bold">
                        Domeinexpert
                    </text>
                </switch>
            </g>
        </g>
        <g>
            <path d="M 200 440 C 200 434.48 204.48 430 210 430 L 290 430 C 295.52 430 300 434.48 300 440 L 300 480 C 300 485.52 295.52 490 290 490 L 210 490 C 204.48 490 200 485.52 200 480 L 200 440 Z" fill="#ffffff" stroke="none" pointer-events="all" style="fill: light-dark(#ffffff, var(--ge-dark-color, #121212));"/>
            <path d="M 202 441 L 202 479 C 202 483.97 206.03 488 211 488 L 289 488 C 293.97 488 298 483.97 298 479 L 298 441 C 298 436.03 293.97 432 289 432 L 211 432 C 206.03 432 202 436.03 202 441" fill="transparent" stroke="none" pointer-events="all" style="fill: transparent;"/>
            <path d="M 200 440 C 200 434.48 204.48 430 210 430 L 290 430 C 295.52 430 300 434.48 300 440 L 300 480 C 300 485.52 295.52 490 290 490 L 210 490 C 204.48 490 200 485.52 200 480 L 200 440 Z" fill="none" stroke="#000000" stroke-miterlimit="10" pointer-events="all" style="stroke: light-dark(rgb(0, 0, 0), rgb(255, 255, 255));"/>
        </g>
        <g>
            <g transform="translate(-0.5 -0.5)">
                <switch>
                    <foreignObject style="overflow: visible; text-align: left;" pointer-events="none" width="100%" height="100%" requiredFeatures="http://www.w3.org/TR/SVG11/feature#Extensibility">
                        <div xmlns="http://www.w3.org/1999/xhtml" style="display: flex; align-items: unsafe center; justify-content: unsafe center; width: 92px; height: 1px; padding-top: 460px; margin-left: 204px;">
                            <div style="box-sizing: border-box; font-size: 0; text-align: center; color: #000000; ">
                                <div style="display: inline-block; font-size: 12px; font-family: &quot;Helvetica&quot;; color: light-dark(#000000, #ffffff); line-height: 1.2; pointer-events: all; white-space: normal; word-wrap: normal; ">
                                    Beantwoord vragen
                                </div>
                            </div>
                        </div>
                    </foreignObject>
                    <text x="250" y="464" fill="light-dark(#000000, #ffffff)" font-family="&quot;Helvetica&quot;" font-size="12px" text-anchor="middle">
                        Beantwoord vrag...
                    </text>
                </switch>
            </g>
        </g>
        <g>
            <path d="M 40 520 L 20 520 L 20 640 L 40 640" fill="#ffffff" stroke="#000000" stroke-miterlimit="10" pointer-events="all" style="fill: light-dark(#ffffff, var(--ge-dark-color, #121212)); stroke: light-dark(rgb(0, 0, 0), rgb(255, 255, 255));"/>
            <path d="M 40 520 L 580 520 L 580 640 L 40 640" fill="none" stroke="#000000" stroke-miterlimit="10" pointer-events="none" style="stroke: light-dark(rgb(0, 0, 0), rgb(255, 255, 255));"/>
            <path d="M 40 520 L 40 640" fill="none" stroke="#000000" stroke-miterlimit="10" pointer-events="none" style="stroke: light-dark(rgb(0, 0, 0), rgb(255, 255, 255));"/>
        </g>
        <g>
            <g transform="translate(-0.5 -0.5)rotate(-90 30.000000000000227 580)">
                <switch>
                    <foreignObject style="overflow: visible; text-align: left;" pointer-events="none" width="100%" height="100%" requiredFeatures="http://www.w3.org/TR/SVG11/feature#Extensibility">
                        <div xmlns="http://www.w3.org/1999/xhtml" style="display: flex; align-items: unsafe center; justify-content: unsafe center; width: 1px; height: 1px; padding-top: 580px; margin-left: 30px;">
                            <div style="box-sizing: border-box; font-size: 0; text-align: center; color: #000000; ">
                                <div style="display: inline-block; font-size: 12px; font-family: &quot;Helvetica&quot;; color: light-dark(#000000, #ffffff); line-height: 1.2; pointer-events: all; font-weight: bold; white-space: nowrap; ">
                                    Data-eigenaar
                                </div>
                            </div>
                        </div>
                    </foreignObject>
                    <text x="30" y="584" fill="light-dark(#000000, #ffffff)" font-family="&quot;Helvetica&quot;" font-size="12px" text-anchor="middle" font-weight="bold">
                        Data-eigenaar
                    </text>
                </switch>
            </g>
        </g>
        <g>
            <path d="M 380 560 C 380 554.48 384.48 550 390 550 L 470 550 C 475.52 550 480 554.48 480 560 L 480 600 C 480 605.52 475.52 610 470 610 L 390 610 C 384.48 610 380 605.52 380 600 L 380 560 Z" fill="#ffffff" stroke="none" pointer-events="all" style="fill: light-dark(#ffffff, var(--ge-dark-color, #121212));"/>
            <path d="M 382 561 L 382 599 C 382 603.97 386.03 608 391 608 L 469 608 C 473.97 608 478 603.97 478 599 L 478 561 C 478 556.03 473.97 552 469 552 L 391 552 C 386.03 552 382 556.03 382 561" fill="transparent" stroke="none" pointer-events="all" style="fill: transparent;"/>
            <path d="M 380 560 C 380 554.48 384.48 550 390 550 L 470 550 C 475.52 550 480 554.48 480 560 L 480 600 C 480 605.52 475.52 610 470 610 L 390 610 C 384.48 610 380 605.52 380 600 L 380 560 Z" fill="none" stroke="#000000" stroke-miterlimit="10" pointer-events="all" style="stroke: light-dark(rgb(0, 0, 0), rgb(255, 255, 255));"/>
        </g>
        <g>
            <g transform="translate(-0.5 -0.5)">
                <switch>
                    <foreignObject style="overflow: visible; text-align: left;" pointer-events="none" width="100%" height="100%" requiredFeatures="http://www.w3.org/TR/SVG11/feature#Extensibility">
                        <div xmlns="http://www.w3.org/1999/xhtml" style="display: flex; align-items: unsafe center; justify-content: unsafe center; width: 92px; height: 1px; padding-top: 580px; margin-left: 384px;">
                            <div style="box-sizing: border-box; font-size: 0; text-align: center; color: #000000; ">
                                <div style="display: inline-block; font-size: 12px; font-family: &quot;Helvetica&quot;; color: light-dark(#000000, #ffffff); line-height: 1.2; pointer-events: all; white-space: normal; word-wrap: normal; ">
                                    Beoordeel model
                                </div>
                            </div>
                        </div>
                    </foreignObject>
                    <text x="430" y="584" fill="light-dark(#000000, #ffffff)" font-family="&quot;Helvetica&quot;" font-size="12px" text-anchor="middle">
                        Beoordeel model
                    </text>
                </switch>
            </g>
        </g>
        <g>
            <path d="M 159.83 250 L 159.83 270 Q 159.83 280 159.83 290 L 159.83 301.88" fill="none" stroke="#000000" stroke-miterlimit="10" pointer-events="stroke" style="stroke: light-dark(rgb(0, 0, 0), rgb(255, 255, 255));"/>
            <path d="M 159.83 308.88 L 157.49 301.88 L 162.16 301.88 Z" fill="#000000" stroke="#000000" stroke-miterlimit="10" pointer-events="all" style="fill: light-dark(rgb(0, 0, 0), rgb(255, 255, 255)); stroke: light-dark(rgb(0, 0, 0), rgb(255, 255, 255));"/>
        </g>
        <g>
            <path d="M 219.83 370 L 219.83 390 Q 219.83 400 219.83 410 L 219.83 421.88" fill="none" stroke="#000000" stroke-miterlimit="10" pointer-events="stroke" style="stroke: light-dark(rgb(0, 0, 0), rgb(255, 255, 255));"/>
            <path d="M 219.83 428.88 L 217.49 421.88 L 222.16 421.88 Z" fill="#000000" stroke="#000000" stroke-miterlimit="10" pointer-events="all" style="fill: light-dark(rgb(0, 0, 0), rgb(255, 255, 255)); stroke: light-dark(rgb(0, 0, 0), rgb(255, 255, 255));"/>
        </g>
        <g>
            <path d="M 279.83 430 L 279.83 410 Q 279.83 400 279.83 390 L 279.83 378.12" fill="none" stroke="#000000" stroke-miterlimit="10" pointer-events="stroke" style="stroke: light-dark(rgb(0, 0, 0), rgb(255, 255, 255));"/>
            <path d="M 279.83 371.12 L 282.16 378.12 L 277.49 378.12 Z" fill="#000000" stroke="#000000" stroke-miterlimit="10" pointer-events="all" style="fill: light-dark(rgb(0, 0, 0), rgb(255, 255, 255)); stroke: light-dark(rgb(0, 0, 0), rgb(255, 255, 255));"/>
        </g>
        <g>
            <path d="M 339.83 310 L 339.83 290 Q 339.83 280 339.83 270 L 339.83 258.12" fill="none" stroke="#000000" stroke-miterlimit="10" pointer-events="stroke" style="stroke: light-dark(rgb(0, 0, 0), rgb(255, 255, 255));"/>
            <path d="M 339.83 251.12 L 342.16 258.12 L 337.49 258.12 Z" fill="#000000" stroke="#000000" stroke-miterlimit="10" pointer-events="all" style="fill: light-dark(rgb(0, 0, 0), rgb(255, 255, 255)); stroke: light-dark(rgb(0, 0, 0), rgb(255, 255, 255));"/>
        </g>
        <g>
            <path d="M 399.83 250 L 399.83 541.88" fill="none" stroke="#000000" stroke-miterlimit="10" pointer-events="stroke" style="stroke: light-dark(rgb(0, 0, 0), rgb(255, 255, 255));"/>
            <path d="M 399.83 548.88 L 397.49 541.88 L 402.16 541.88 Z" fill="#000000" stroke="#000000" stroke-miterlimit="10" pointer-events="all" style="fill: light-dark(rgb(0, 0, 0), rgb(255, 255, 255)); stroke: light-dark(rgb(0, 0, 0), rgb(255, 255, 255));"/>
        </g>
        <g>
            <path d="M 459.83 550 L 459.83 470 Q 459.83 460 459.83 450 L 459.83 378.12" fill="none" stroke="#000000" stroke-miterlimit="10" pointer-events="stroke" style="stroke: light-dark(rgb(0, 0, 0), rgb(255, 255, 255));"/>
            <path d="M 459.83 371.12 L 462.16 378.12 L 457.49 378.12 Z" fill="#000000" stroke="#000000" stroke-miterlimit="10" pointer-events="all" style="fill: light-dark(rgb(0, 0, 0), rgb(255, 255, 255)); stroke: light-dark(rgb(0, 0, 0), rgb(255, 255, 255));"/>
        </g>
        <g>
            <path d="M 420 220 L 455 220 Q 465 220 465 230 L 465 301.88" fill="none" stroke="#000000" stroke-miterlimit="10" pointer-events="stroke" style="stroke: light-dark(rgb(0, 0, 0), rgb(255, 255, 255));"/>
            <path d="M 465 308.88 L 462.67 301.88 L 467.33 301.88 Z" fill="#000000" stroke="#000000" stroke-miterlimit="10" pointer-events="all" style="fill: light-dark(rgb(0, 0, 0), rgb(255, 255, 255)); stroke: light-dark(rgb(0, 0, 0), rgb(255, 255, 255));"/>
        </g>
        <g>
            <path d="M 210 100 L 380 100 L 380 100 L 390 120 L 380 140 L 380 140 L 210 140 L 220 120 Z" fill="#ffffff" stroke="#000000" stroke-miterlimit="10" pointer-events="all" style="fill: light-dark(#ffffff, var(--ge-dark-color, #121212)); stroke: light-dark(rgb(0, 0, 0), rgb(255, 255, 255));"/>
        </g>
        <g>
            <g transform="translate(-0.5 -0.5)">
                <switch>
                    <foreignObject style="overflow: visible; text-align: left;" pointer-events="none" width="100%" height="100%" requiredFeatures="http://www.w3.org/TR/SVG11/feature#Extensibility">
                        <div xmlns="http://www.w3.org/1999/xhtml" style="display: flex; align-items: unsafe center; justify-content: unsafe center; width: 1px; height: 1px; padding-top: 120px; margin-left: 300px;">
                            <div style="box-sizing: border-box; font-size: 0; text-align: center; color: #000000; ">
                                <div style="display: inline-block; font-size: 12px; font-family: &quot;Helvetica&quot;; color: light-dark(#000000, #ffffff); line-height: 1.2; pointer-events: all; white-space: nowrap; ">
                                    <font>
                                        Nieuw versienummer
                                    </font>
                                    <div>
                                        <font>
                                            met 'draft'
                                        </font>
                                    </div>
                                </div>
                            </div>
                        </div>
                    </foreignObject>
                    <text x="300" y="124" fill="light-dark(#000000, #ffffff)" font-family="&quot;Helvetica&quot;" font-size="12px" text-anchor="middle">
                        Nieuw versienummer...
                    </text>
                </switch>
            </g>
        </g>
        <g>
            <path d="M 400 100 L 570 100 L 570 100 L 580 120 L 570 140 L 570 140 L 400 140 L 410 120 Z" fill="#ffffff" stroke="#000000" stroke-miterlimit="10" pointer-events="all" style="fill: light-dark(#ffffff, var(--ge-dark-color, #121212)); stroke: light-dark(rgb(0, 0, 0), rgb(255, 255, 255));"/>
        </g>
        <g>
            <g transform="translate(-0.5 -0.5)">
                <switch>
                    <foreignObject style="overflow: visible; text-align: left;" pointer-events="none" width="100%" height="100%" requiredFeatures="http://www.w3.org/TR/SVG11/feature#Extensibility">
                        <div xmlns="http://www.w3.org/1999/xhtml" style="display: flex; align-items: unsafe center; justify-content: unsafe center; width: 1px; height: 1px; padding-top: 120px; margin-left: 490px;">
                            <div style="box-sizing: border-box; font-size: 0; text-align: center; color: #000000; ">
                                <div style="display: inline-block; font-size: 12px; font-family: &quot;Helvetica&quot;; color: light-dark(#000000, #ffffff); line-height: 1.2; pointer-events: all; white-space: nowrap; ">
                                    <font>
                                        Nieuw versienummer
                                    </font>
                                    <div>
                                        <font>
                                            zonder 'draft'
                                        </font>
                                    </div>
                                </div>
                            </div>
                        </div>
                    </foreignObject>
                    <text x="490" y="124" fill="light-dark(#000000, #ffffff)" font-family="&quot;Helvetica&quot;" font-size="12px" text-anchor="middle">
                        Nieuw versienummer...
                    </text>
                </switch>
            </g>
        </g>
        <g>
            <path d="M 210 50 L 380 50 L 380 50 L 390 70 L 380 90 L 380 90 L 210 90 L 220 70 Z" fill="#ffffff" stroke="#000000" stroke-miterlimit="10" pointer-events="all" style="fill: light-dark(#ffffff, var(--ge-dark-color, #121212)); stroke: light-dark(rgb(0, 0, 0), rgb(255, 255, 255));"/>
        </g>
        <g>
            <g transform="translate(-0.5 -0.5)">
                <switch>
                    <foreignObject style="overflow: visible; text-align: left;" pointer-events="none" width="100%" height="100%" requiredFeatures="http://www.w3.org/TR/SVG11/feature#Extensibility">
                        <div xmlns="http://www.w3.org/1999/xhtml" style="display: flex; align-items: unsafe center; justify-content: unsafe center; width: 1px; height: 1px; padding-top: 70px; margin-left: 300px;">
                            <div style="box-sizing: border-box; font-size: 0; text-align: center; color: #000000; ">
                                <div style="display: inline-block; font-size: 12px; font-family: &quot;Helvetica&quot;; color: light-dark(#000000, #ffffff); line-height: 1.2; pointer-events: all; white-space: nowrap; ">
                                    Dataproductmodel 'upcoming'
                                </div>
                            </div>
                        </div>
                    </foreignObject>
                    <text x="300" y="74" fill="light-dark(#000000, #ffffff)" font-family="&quot;Helvetica&quot;" font-size="12px" text-anchor="middle">
                        Dataproductmodel 'upcoming'
                    </text>
                </switch>
            </g>
        </g>
        <g>
            <path d="M 400 50 L 570 50 L 570 50 L 580 70 L 570 90 L 570 90 L 400 90 L 410 70 Z" fill="#ffffff" stroke="#000000" stroke-miterlimit="10" pointer-events="all" style="fill: light-dark(#ffffff, var(--ge-dark-color, #121212)); stroke: light-dark(rgb(0, 0, 0), rgb(255, 255, 255));"/>
        </g>
        <g>
            <g transform="translate(-0.5 -0.5)">
                <switch>
                    <foreignObject style="overflow: visible; text-align: left;" pointer-events="none" width="100%" height="100%" requiredFeatures="http://www.w3.org/TR/SVG11/feature#Extensibility">
                        <div xmlns="http://www.w3.org/1999/xhtml" style="display: flex; align-items: unsafe center; justify-content: unsafe center; width: 1px; height: 1px; padding-top: 70px; margin-left: 490px;">
                            <div style="box-sizing: border-box; font-size: 0; text-align: center; color: #000000; ">
                                <div style="display: inline-block; font-size: 12px; font-family: &quot;Helvetica&quot;; color: light-dark(#000000, #ffffff); line-height: 1.2; pointer-events: all; white-space: nowrap; ">
                                    Nieuwe versie
                                </div>
                            </div>
                        </div>
                    </foreignObject>
                    <text x="490" y="74" fill="light-dark(#000000, #ffffff)" font-family="&quot;Helvetica&quot;" font-size="12px" text-anchor="middle">
                        Nieuwe versie
                    </text>
                </switch>
            </g>
        </g>
        <g>
            <path d="M 210 0 L 380 0 L 380 0 L 390 20 L 380 40 L 380 40 L 210 40 L 220 20 Z" fill="#ffffff" stroke="#000000" stroke-miterlimit="10" pointer-events="all" style="fill: light-dark(#ffffff, var(--ge-dark-color, #121212)); stroke: light-dark(rgb(0, 0, 0), rgb(255, 255, 255));"/>
        </g>
        <g>
            <g transform="translate(-0.5 -0.5)">
                <switch>
                    <foreignObject style="overflow: visible; text-align: left;" pointer-events="none" width="100%" height="100%" requiredFeatures="http://www.w3.org/TR/SVG11/feature#Extensibility">
                        <div xmlns="http://www.w3.org/1999/xhtml" style="display: flex; align-items: unsafe center; justify-content: unsafe center; width: 1px; height: 1px; padding-top: 20px; margin-left: 300px;">
                            <div style="box-sizing: border-box; font-size: 0; text-align: center; color: #000000; ">
                                <div style="display: inline-block; font-size: 12px; font-family: &quot;Helvetica&quot;; color: light-dark(#000000, #ffffff); line-height: 1.2; pointer-events: all; white-space: nowrap; ">
                                    Begrip 'ingediend'
                                </div>
                            </div>
                        </div>
                    </foreignObject>
                    <text x="300" y="24" fill="light-dark(#000000, #ffffff)" font-family="&quot;Helvetica&quot;" font-size="12px" text-anchor="middle">
                        Begrip 'ingediend'
                    </text>
                </switch>
            </g>
        </g>
        <g>
            <path d="M 400 0 L 570 0 L 570 0 L 580 20 L 570 40 L 570 40 L 400 40 L 410 20 Z" fill="#ffffff" stroke="#000000" stroke-miterlimit="10" pointer-events="all" style="fill: light-dark(#ffffff, var(--ge-dark-color, #121212)); stroke: light-dark(rgb(0, 0, 0), rgb(255, 255, 255));"/>
        </g>
        <g>
            <g transform="translate(-0.5 -0.5)">
                <switch>
                    <foreignObject style="overflow: visible; text-align: left;" pointer-events="none" width="100%" height="100%" requiredFeatures="http://www.w3.org/TR/SVG11/feature#Extensibility">
                        <div xmlns="http://www.w3.org/1999/xhtml" style="display: flex; align-items: unsafe center; justify-content: unsafe center; width: 1px; height: 1px; padding-top: 20px; margin-left: 490px;">
                            <div style="box-sizing: border-box; font-size: 0; text-align: center; color: #000000; ">
                                <div style="display: inline-block; font-size: 12px; font-family: &quot;Helvetica&quot;; color: light-dark(#000000, #ffffff); line-height: 1.2; pointer-events: all; white-space: nowrap; ">
                                    Begrip 'geldig'
                                </div>
                            </div>
                        </div>
                    </foreignObject>
                    <text x="490" y="24" fill="light-dark(#000000, #ffffff)" font-family="&quot;Helvetica&quot;" font-size="12px" text-anchor="middle">
                        Begrip 'geldig'
                    </text>
                </switch>
            </g>
        </g>
    </g>
    <switch>
        <g requiredFeatures="http://www.w3.org/TR/SVG11/feature#Extensibility"/>
        <a transform="translate(0,-5)" xlink:href="https://www.drawio.com/doc/faq/svg-export-text-problems" target="_blank">
            <text text-anchor="middle" font-size="10px" x="50%" y="100%">
                Text is not SVG - cannot display
            </text>
        </a>
    </switch>
</svg>